<svg id="svg" version="1.1" xmlns="http://www.w3.org/2000/svg" xmlns:xlink="http://www.w3.org/1999/xlink" width="400" height="400" viewBox="0, 0, 400,400"><g id="svgg"><path id="path0" d="M187.667 0.196 C 187.025 0.266,184.400 0.488,181.833 0.688 C 172.099 1.447,159.329 3.664,149.220 6.348 C 49.739 32.768,-13.348 129.028,2.206 230.667 C 6.860 261.077,18.836 290.676,36.567 315.588 C 41.339 322.294,42.330 323.497,42.108 322.316 C 42.020 321.848,42.267 320.573,42.657 319.483 C 43.792 316.308,45.208 311.761,46.181 308.167 C 46.677 306.333,47.957 301.833,49.025 298.167 C 50.093 294.500,52.240 287.075,53.795 281.667 C 55.350 276.258,57.021 270.483,57.508 268.833 C 57.996 267.183,59.342 262.533,60.499 258.500 C 61.657 254.467,63.131 249.367,63.775 247.167 C 64.420 244.967,65.167 242.342,65.435 241.333 C 65.704 240.325,66.302 238.225,66.764 236.667 C 67.936 232.713,69.907 226.033,70.894 222.667 C 71.350 221.108,72.078 218.633,72.509 217.167 C 74.488 210.446,75.154 208.169,76.505 203.500 C 80.728 188.917,81.699 185.575,82.514 182.833 C 83.005 181.183,83.554 179.308,83.734 178.667 C 83.915 178.025,84.593 175.775,85.242 173.667 C 85.890 171.558,86.689 168.933,87.017 167.833 C 88.697 162.193,92.780 150.284,94.845 145.000 C 95.876 142.361,96.361 141.213,98.081 137.333 C 111.561 106.927,129.455 92.167,152.833 92.167 C 175.256 92.167,186.342 104.666,207.823 154.167 C 210.546 160.440,216.944 174.555,219.911 180.833 C 221.470 184.133,223.310 188.033,223.998 189.500 C 224.687 190.967,226.110 193.967,227.161 196.167 C 228.212 198.367,229.744 201.667,230.566 203.500 C 245.561 236.969,257.807 247.655,272.783 240.339 C 285.508 234.122,292.226 221.373,302.997 183.000 C 303.692 180.525,304.788 176.700,305.432 174.500 C 306.076 172.300,306.937 169.300,307.345 167.833 C 308.352 164.214,309.269 160.951,311.324 153.667 C 313.110 147.337,314.558 142.065,316.357 135.333 C 316.920 133.225,317.659 130.600,317.997 129.500 C 319.134 125.809,321.922 116.198,322.832 112.833 C 323.573 110.094,327.564 95.865,331.152 83.167 C 331.566 81.700,332.301 79.075,332.785 77.333 C 333.269 75.592,334.401 71.542,335.302 68.333 C 336.202 65.125,337.201 61.255,337.521 59.732 C 337.898 57.945,338.316 56.817,338.703 56.546 C 339.243 56.167,338.907 55.768,335.234 52.422 C 302.555 22.660,263.386 5.259,218.667 0.636 C 215.314 0.289,190.086 -0.069,187.667 0.196 M360.000 81.126 C 360.000 82.223,359.179 85.231,352.939 107.000 C 351.284 112.775,349.814 117.950,349.673 118.500 C 349.532 119.050,348.713 121.975,347.852 125.000 C 346.992 128.025,344.730 135.975,342.827 142.667 C 340.924 149.358,338.833 156.889,338.181 159.401 C 337.115 163.506,334.890 171.371,332.518 179.415 C 330.659 185.720,329.887 188.359,328.495 193.167 C 327.698 195.917,326.196 201.092,325.157 204.667 C 324.117 208.242,323.122 211.692,322.947 212.333 C 322.771 212.975,322.349 214.400,322.009 215.500 C 321.669 216.600,320.915 219.150,320.333 221.167 C 319.752 223.183,319.002 225.733,318.667 226.833 C 318.331 227.933,317.580 230.483,316.996 232.500 C 302.731 281.796,283.102 305.829,255.075 308.315 C 240.440 309.613,229.269 304.105,218.604 290.333 C 213.148 283.288,204.120 265.782,195.655 245.833 C 193.096 239.803,183.924 219.636,180.420 212.333 C 179.144 209.675,177.455 206.150,176.666 204.500 C 164.247 178.528,161.466 173.795,154.510 166.807 C 143.849 156.096,130.254 157.287,120.538 169.785 C 113.123 179.321,110.334 186.158,100.462 219.000 C 99.993 220.558,99.260 222.958,98.833 224.333 C 98.406 225.708,97.579 228.483,96.994 230.500 C 96.410 232.517,95.362 236.042,94.665 238.333 C 93.969 240.625,92.472 245.650,91.339 249.500 C 90.206 253.350,89.003 257.400,88.667 258.500 C 88.330 259.600,86.901 264.400,85.492 269.167 C 84.082 273.933,82.212 280.233,81.336 283.167 C 80.460 286.100,79.281 290.075,78.716 292.000 C 78.151 293.925,76.706 298.800,75.504 302.833 C 74.303 306.867,72.784 311.967,72.129 314.167 C 71.473 316.367,70.664 319.067,70.331 320.167 C 69.997 321.267,69.246 323.817,68.661 325.833 C 65.241 337.634,62.948 344.708,62.484 344.886 C 61.573 345.235,73.382 355.410,82.000 361.699 C 127.086 394.605,184.571 407.243,239.333 396.288 C 333.194 377.511,399.833 296.012,399.833 200.000 C 399.833 157.013,387.784 118.742,363.443 84.417 C 359.967 79.515,360.000 79.546,360.000 81.126 " stroke="none" fill="currentColor" fill-rule="evenodd"></path></g></svg>